<mxfile host="app.diagrams.net" agent="Mozilla/5.0 (X11; Linux x86_64; rv:132.0) Gecko/20100101 Firefox/132.0" version="24.8.6">
  <diagram name="Page-1" id="yXY4rZU-WvvETbi0OF_F">
    <mxGraphModel dx="574" dy="299" grid="1" gridSize="10" guides="1" tooltips="1" connect="1" arrows="1" fold="1" page="1" pageScale="1" pageWidth="850" pageHeight="1100" background="none" math="0" shadow="0">
      <root>
        <mxCell id="0" />
        <mxCell id="1" parent="0" />
        <mxCell id="yaZ3JlDPk_gf3g3lH3d3-1" value="" style="shape=mxgraph.cisco.switches.workgroup_switch;sketch=0;html=1;pointerEvents=1;dashed=0;fillColor=#036897;strokeColor=#ffffff;strokeWidth=2;verticalLabelPosition=bottom;verticalAlign=top;align=center;outlineConnect=0;fontFamily=Iosevka NF;" parent="1" vertex="1">
          <mxGeometry x="375" y="270" width="101" height="50" as="geometry" />
        </mxCell>
        <mxCell id="yaZ3JlDPk_gf3g3lH3d3-2" value="" style="shape=mxgraph.cisco.routers.router;sketch=0;html=1;pointerEvents=1;dashed=0;fillColor=#036897;strokeColor=#ffffff;strokeWidth=2;verticalLabelPosition=bottom;verticalAlign=top;align=center;outlineConnect=0;fontFamily=Iosevka NF;" parent="1" vertex="1">
          <mxGeometry x="386.5" y="590" width="78" height="53" as="geometry" />
        </mxCell>
        <mxCell id="yaZ3JlDPk_gf3g3lH3d3-3" value="" style="shape=mxgraph.cisco.security.firewall;sketch=0;html=1;pointerEvents=1;dashed=0;fillColor=#036897;strokeColor=#ffffff;strokeWidth=2;verticalLabelPosition=bottom;verticalAlign=top;align=center;outlineConnect=0;fontFamily=Iosevka NF;" parent="1" vertex="1">
          <mxGeometry x="411" y="490" width="29" height="67" as="geometry" />
        </mxCell>
        <mxCell id="yaZ3JlDPk_gf3g3lH3d3-5" value="" style="shape=mxgraph.cisco.computers_and_peripherals.terminal;sketch=0;html=1;pointerEvents=1;dashed=0;fillColor=#036897;strokeColor=#ffffff;strokeWidth=2;verticalLabelPosition=bottom;verticalAlign=top;align=center;outlineConnect=0;fontFamily=Iosevka NF;" parent="1" vertex="1">
          <mxGeometry x="250" y="320" width="61" height="54" as="geometry" />
        </mxCell>
        <mxCell id="yaZ3JlDPk_gf3g3lH3d3-27" style="edgeStyle=orthogonalEdgeStyle;rounded=0;orthogonalLoop=1;jettySize=auto;html=1;endArrow=none;endFill=0;fillColor=#d5e8d4;strokeColor=#82b366;strokeWidth=4;fontFamily=Iosevka NF;" parent="1" source="yaZ3JlDPk_gf3g3lH3d3-6" target="yaZ3JlDPk_gf3g3lH3d3-3" edge="1">
          <mxGeometry relative="1" as="geometry" />
        </mxCell>
        <mxCell id="yaZ3JlDPk_gf3g3lH3d3-36" value="&lt;div&gt;VLAN C&lt;/div&gt;" style="edgeLabel;html=1;align=center;verticalAlign=middle;resizable=0;points=[];labelBackgroundColor=none;fontFamily=Iosevka NF;" parent="yaZ3JlDPk_gf3g3lH3d3-27" vertex="1" connectable="0">
          <mxGeometry x="0.2517" relative="1" as="geometry">
            <mxPoint x="26" y="3" as="offset" />
          </mxGeometry>
        </mxCell>
        <mxCell id="yaZ3JlDPk_gf3g3lH3d3-6" value="" style="shape=mxgraph.cisco.switches.workgroup_switch;sketch=0;html=1;pointerEvents=1;dashed=0;fillColor=#036897;strokeColor=#ffffff;strokeWidth=2;verticalLabelPosition=bottom;verticalAlign=top;align=center;outlineConnect=0;fontFamily=Iosevka NF;" parent="1" vertex="1">
          <mxGeometry x="375" y="400" width="101" height="50" as="geometry" />
        </mxCell>
        <mxCell id="yaZ3JlDPk_gf3g3lH3d3-7" value="" style="shape=mxgraph.cisco.routers.router;sketch=0;html=1;pointerEvents=1;dashed=0;fillColor=#036897;strokeColor=#ffffff;strokeWidth=2;verticalLabelPosition=bottom;verticalAlign=top;align=center;outlineConnect=0;fontFamily=Iosevka NF;" parent="1" vertex="1">
          <mxGeometry x="462" y="680" width="78" height="53" as="geometry" />
        </mxCell>
        <mxCell id="yaZ3JlDPk_gf3g3lH3d3-8" value="" style="shape=mxgraph.cisco.routers.router;sketch=0;html=1;pointerEvents=1;dashed=0;fillColor=#036897;strokeColor=#ffffff;strokeWidth=2;verticalLabelPosition=bottom;verticalAlign=top;align=center;outlineConnect=0;fontFamily=Iosevka NF;" parent="1" vertex="1">
          <mxGeometry x="311" y="680" width="78" height="53" as="geometry" />
        </mxCell>
        <mxCell id="yaZ3JlDPk_gf3g3lH3d3-10" value="" style="shape=mxgraph.cisco.computers_and_peripherals.terminal;sketch=0;html=1;pointerEvents=1;dashed=0;fillColor=#036897;strokeColor=#ffffff;strokeWidth=2;verticalLabelPosition=bottom;verticalAlign=top;align=center;outlineConnect=0;fontFamily=Iosevka NF;" parent="1" vertex="1">
          <mxGeometry x="540" y="346" width="61" height="54" as="geometry" />
        </mxCell>
        <mxCell id="yaZ3JlDPk_gf3g3lH3d3-11" value="&lt;div&gt;&lt;br&gt;&lt;/div&gt;&lt;div&gt;&lt;br&gt;&lt;/div&gt;" style="shape=mxgraph.cisco.computers_and_peripherals.terminal;sketch=0;html=1;pointerEvents=1;dashed=0;fillColor=#036897;strokeColor=#ffffff;strokeWidth=2;verticalLabelPosition=bottom;verticalAlign=top;align=center;outlineConnect=0;fontFamily=Iosevka NF;" parent="1" vertex="1">
          <mxGeometry x="540" y="450" width="61" height="54" as="geometry" />
        </mxCell>
        <mxCell id="yaZ3JlDPk_gf3g3lH3d3-12" value="" style="shape=mxgraph.cisco.computers_and_peripherals.terminal;sketch=0;html=1;pointerEvents=1;dashed=0;fillColor=#036897;strokeColor=#ffffff;strokeWidth=2;verticalLabelPosition=bottom;verticalAlign=top;align=center;outlineConnect=0;fontFamily=Iosevka NF;" parent="1" vertex="1">
          <mxGeometry x="250" y="216" width="61" height="54" as="geometry" />
        </mxCell>
        <mxCell id="yaZ3JlDPk_gf3g3lH3d3-13" value="" style="endArrow=none;html=1;rounded=0;fillColor=#d5e8d4;strokeColor=#82B366;strokeWidth=4;entryX=0.5;entryY=1;entryDx=0;entryDy=0;entryPerimeter=0;fontFamily=Iosevka NF;" parent="1" source="yaZ3JlDPk_gf3g3lH3d3-1" target="yaZ3JlDPk_gf3g3lH3d3-9" edge="1">
          <mxGeometry width="50" height="50" relative="1" as="geometry">
            <mxPoint x="290" y="460" as="sourcePoint" />
            <mxPoint x="340" y="410" as="targetPoint" />
          </mxGeometry>
        </mxCell>
        <mxCell id="yaZ3JlDPk_gf3g3lH3d3-37" value="&lt;div&gt;VLAN C&lt;/div&gt;" style="edgeLabel;html=1;align=center;verticalAlign=middle;resizable=0;points=[];labelBackgroundColor=none;fontFamily=Iosevka NF;" parent="yaZ3JlDPk_gf3g3lH3d3-13" vertex="1" connectable="0">
          <mxGeometry x="-0.0574" y="1" relative="1" as="geometry">
            <mxPoint x="27" y="-1" as="offset" />
          </mxGeometry>
        </mxCell>
        <mxCell id="yaZ3JlDPk_gf3g3lH3d3-15" value="" style="endArrow=none;html=1;rounded=0;fillColor=#dae8fc;strokeColor=#6c8ebf;strokeWidth=4;entryX=0;entryY=0.98;entryDx=0;entryDy=0;entryPerimeter=0;exitX=1;exitY=0.5;exitDx=0;exitDy=0;exitPerimeter=0;fontFamily=Iosevka NF;" parent="1" source="yaZ3JlDPk_gf3g3lH3d3-5" target="yaZ3JlDPk_gf3g3lH3d3-1" edge="1">
          <mxGeometry width="50" height="50" relative="1" as="geometry">
            <mxPoint x="330" y="350" as="sourcePoint" />
            <mxPoint x="380" y="300" as="targetPoint" />
          </mxGeometry>
        </mxCell>
        <mxCell id="yaZ3JlDPk_gf3g3lH3d3-32" value="&lt;div&gt;VLAN B&lt;/div&gt;" style="edgeLabel;html=1;align=center;verticalAlign=middle;resizable=0;points=[];labelBackgroundColor=none;fontFamily=Iosevka NF;" parent="yaZ3JlDPk_gf3g3lH3d3-15" vertex="1" connectable="0">
          <mxGeometry x="-0.0929" y="-2" relative="1" as="geometry">
            <mxPoint x="-2" y="-19" as="offset" />
          </mxGeometry>
        </mxCell>
        <mxCell id="yaZ3JlDPk_gf3g3lH3d3-17" value="" style="endArrow=none;html=1;rounded=0;strokeWidth=4;fillColor=#f8cecc;strokeColor=#b85450;exitX=0.16;exitY=0.23;exitDx=0;exitDy=0;exitPerimeter=0;entryX=0.91;entryY=0.92;entryDx=0;entryDy=0;entryPerimeter=0;fontFamily=Iosevka NF;" parent="1" source="yaZ3JlDPk_gf3g3lH3d3-1" target="yaZ3JlDPk_gf3g3lH3d3-12" edge="1">
          <mxGeometry width="50" height="50" relative="1" as="geometry">
            <mxPoint x="240" y="270" as="sourcePoint" />
            <mxPoint x="290" y="220" as="targetPoint" />
          </mxGeometry>
        </mxCell>
        <mxCell id="yaZ3JlDPk_gf3g3lH3d3-38" value="&lt;div style=&quot;line-height: 0%;&quot;&gt;VLAN A&lt;/div&gt;" style="edgeLabel;html=1;align=center;verticalAlign=middle;resizable=0;points=[];labelBackgroundColor=none;fontFamily=Iosevka NF;" parent="yaZ3JlDPk_gf3g3lH3d3-17" vertex="1" connectable="0">
          <mxGeometry x="0.0231" y="-3" relative="1" as="geometry">
            <mxPoint x="-8" y="-14" as="offset" />
          </mxGeometry>
        </mxCell>
        <mxCell id="yaZ3JlDPk_gf3g3lH3d3-18" value="" style="endArrow=none;html=1;rounded=0;strokeWidth=8;fontFamily=Iosevka NF;" parent="1" source="yaZ3JlDPk_gf3g3lH3d3-1" target="yaZ3JlDPk_gf3g3lH3d3-6" edge="1">
          <mxGeometry width="50" height="50" relative="1" as="geometry">
            <mxPoint x="510" y="350" as="sourcePoint" />
            <mxPoint x="560" y="300" as="targetPoint" />
          </mxGeometry>
        </mxCell>
        <mxCell id="yaZ3JlDPk_gf3g3lH3d3-31" value="&lt;div&gt;trunk&lt;/div&gt;" style="edgeLabel;html=1;align=center;verticalAlign=middle;resizable=0;points=[];labelBackgroundColor=none;fontFamily=Iosevka NF;" parent="yaZ3JlDPk_gf3g3lH3d3-18" vertex="1" connectable="0">
          <mxGeometry x="-0.2103" y="2" relative="1" as="geometry">
            <mxPoint x="21" y="7" as="offset" />
          </mxGeometry>
        </mxCell>
        <mxCell id="yaZ3JlDPk_gf3g3lH3d3-19" value="" style="endArrow=none;html=1;rounded=0;fillColor=#f8cecc;strokeColor=#b85450;strokeWidth=4;entryX=0.15;entryY=0.5;entryDx=0;entryDy=0;entryPerimeter=0;fontFamily=Iosevka NF;" parent="1" source="yaZ3JlDPk_gf3g3lH3d3-6" target="yaZ3JlDPk_gf3g3lH3d3-10" edge="1">
          <mxGeometry width="50" height="50" relative="1" as="geometry">
            <mxPoint x="490" y="440" as="sourcePoint" />
            <mxPoint x="540" y="390" as="targetPoint" />
          </mxGeometry>
        </mxCell>
        <mxCell id="yaZ3JlDPk_gf3g3lH3d3-20" value="" style="endArrow=none;html=1;rounded=0;fillColor=#dae8fc;strokeColor=#6c8ebf;strokeWidth=4;exitX=0.87;exitY=0.74;exitDx=0;exitDy=0;exitPerimeter=0;entryX=0.15;entryY=0.5;entryDx=0;entryDy=0;entryPerimeter=0;fontFamily=Iosevka NF;" parent="1" source="yaZ3JlDPk_gf3g3lH3d3-6" target="yaZ3JlDPk_gf3g3lH3d3-11" edge="1">
          <mxGeometry width="50" height="50" relative="1" as="geometry">
            <mxPoint x="530" y="480" as="sourcePoint" />
            <mxPoint x="580" y="430" as="targetPoint" />
          </mxGeometry>
        </mxCell>
        <mxCell id="yaZ3JlDPk_gf3g3lH3d3-22" value="" style="endArrow=none;html=1;rounded=0;fillColor=#fff2cc;strokeColor=#d6b656;strokeWidth=8;exitX=0.88;exitY=0.1;exitDx=0;exitDy=0;exitPerimeter=0;entryX=0.12;entryY=0.9;entryDx=0;entryDy=0;entryPerimeter=0;fontFamily=Iosevka NF;" parent="1" source="yaZ3JlDPk_gf3g3lH3d3-8" target="yaZ3JlDPk_gf3g3lH3d3-2" edge="1">
          <mxGeometry width="50" height="50" relative="1" as="geometry">
            <mxPoint x="310" y="700" as="sourcePoint" />
            <mxPoint x="360" y="650" as="targetPoint" />
          </mxGeometry>
        </mxCell>
        <mxCell id="yaZ3JlDPk_gf3g3lH3d3-23" value="" style="endArrow=none;html=1;rounded=0;fillColor=#fff2cc;strokeColor=#d6b656;strokeWidth=8;entryX=0.88;entryY=0.9;entryDx=0;entryDy=0;entryPerimeter=0;exitX=0.12;exitY=0.1;exitDx=0;exitDy=0;exitPerimeter=0;fontFamily=Iosevka NF;" parent="1" source="yaZ3JlDPk_gf3g3lH3d3-7" target="yaZ3JlDPk_gf3g3lH3d3-2" edge="1">
          <mxGeometry width="50" height="50" relative="1" as="geometry">
            <mxPoint x="490" y="710" as="sourcePoint" />
            <mxPoint x="540" y="660" as="targetPoint" />
          </mxGeometry>
        </mxCell>
        <mxCell id="yaZ3JlDPk_gf3g3lH3d3-24" value="" style="endArrow=none;html=1;rounded=0;fillColor=#fff2cc;strokeColor=#d6b656;strokeWidth=8;fontFamily=Iosevka NF;" parent="1" source="yaZ3JlDPk_gf3g3lH3d3-8" target="yaZ3JlDPk_gf3g3lH3d3-7" edge="1">
          <mxGeometry width="50" height="50" relative="1" as="geometry">
            <mxPoint x="400" y="770" as="sourcePoint" />
            <mxPoint x="450" y="720" as="targetPoint" />
          </mxGeometry>
        </mxCell>
        <mxCell id="yaZ3JlDPk_gf3g3lH3d3-25" style="rounded=0;orthogonalLoop=1;jettySize=auto;html=1;entryX=1;entryY=0.5;entryDx=0;entryDy=0;entryPerimeter=0;endArrow=none;endFill=0;edgeStyle=orthogonalEdgeStyle;fillColor=#dae8fc;strokeColor=#6c8ebf;strokeWidth=4;exitX=0.98;exitY=0.5;exitDx=0;exitDy=0;exitPerimeter=0;fontFamily=Iosevka NF;" parent="1" source="yaZ3JlDPk_gf3g3lH3d3-1" target="yaZ3JlDPk_gf3g3lH3d3-7" edge="1">
          <mxGeometry relative="1" as="geometry">
            <Array as="points">
              <mxPoint x="620" y="295" />
              <mxPoint x="620" y="707" />
            </Array>
          </mxGeometry>
        </mxCell>
        <mxCell id="yaZ3JlDPk_gf3g3lH3d3-34" value="&lt;div&gt;VLAN B&lt;/div&gt;" style="edgeLabel;html=1;align=center;verticalAlign=middle;resizable=0;points=[];labelBackgroundColor=none;fontFamily=Iosevka NF;" parent="yaZ3JlDPk_gf3g3lH3d3-25" vertex="1" connectable="0">
          <mxGeometry x="0.2407" y="-1" relative="1" as="geometry">
            <mxPoint x="-29" y="6" as="offset" />
          </mxGeometry>
        </mxCell>
        <mxCell id="yaZ3JlDPk_gf3g3lH3d3-26" style="edgeStyle=orthogonalEdgeStyle;rounded=0;orthogonalLoop=1;jettySize=auto;html=1;entryX=0;entryY=0.5;entryDx=0;entryDy=0;entryPerimeter=0;fillColor=#f8cecc;strokeColor=#b85450;endArrow=none;endFill=0;strokeWidth=4;fontFamily=Iosevka NF;" parent="1" source="yaZ3JlDPk_gf3g3lH3d3-6" target="yaZ3JlDPk_gf3g3lH3d3-8" edge="1">
          <mxGeometry relative="1" as="geometry">
            <Array as="points">
              <mxPoint x="280" y="425" />
              <mxPoint x="280" y="707" />
              <mxPoint x="311" y="707" />
            </Array>
          </mxGeometry>
        </mxCell>
        <mxCell id="yaZ3JlDPk_gf3g3lH3d3-33" value="&lt;div&gt;VLAN A&lt;/div&gt;" style="edgeLabel;html=1;align=center;verticalAlign=middle;resizable=0;points=[];labelBackgroundColor=none;fontFamily=Iosevka NF;" parent="yaZ3JlDPk_gf3g3lH3d3-26" vertex="1" connectable="0">
          <mxGeometry x="0.0711" y="2" relative="1" as="geometry">
            <mxPoint x="28" y="1" as="offset" />
          </mxGeometry>
        </mxCell>
        <mxCell id="yaZ3JlDPk_gf3g3lH3d3-28" style="edgeStyle=orthogonalEdgeStyle;rounded=0;orthogonalLoop=1;jettySize=auto;html=1;entryX=0.5;entryY=0;entryDx=0;entryDy=0;entryPerimeter=0;endArrow=none;endFill=0;fillColor=#d5e8d4;strokeColor=#82b366;strokeWidth=4;fontFamily=Iosevka NF;" parent="1" source="yaZ3JlDPk_gf3g3lH3d3-3" target="yaZ3JlDPk_gf3g3lH3d3-2" edge="1">
          <mxGeometry relative="1" as="geometry" />
        </mxCell>
        <mxCell id="yaZ3JlDPk_gf3g3lH3d3-9" value="" style="shape=mxgraph.cisco.routers.router;sketch=0;html=1;pointerEvents=1;dashed=0;fillColor=#036897;strokeColor=#ffffff;strokeWidth=2;verticalLabelPosition=bottom;verticalAlign=top;align=center;outlineConnect=0;fontFamily=Iosevka NF;" parent="1" vertex="1">
          <mxGeometry x="386" y="163" width="78" height="53" as="geometry" />
        </mxCell>
        <mxCell id="yaZ3JlDPk_gf3g3lH3d3-40" value="&lt;div&gt;PC1A&lt;/div&gt;" style="text;html=1;align=center;verticalAlign=middle;whiteSpace=wrap;rounded=0;fontFamily=Iosevka NF;" parent="1" vertex="1">
          <mxGeometry x="251" y="266" width="60" height="30" as="geometry" />
        </mxCell>
        <mxCell id="yaZ3JlDPk_gf3g3lH3d3-41" value="&lt;div&gt;PC1B&lt;/div&gt;" style="text;html=1;align=center;verticalAlign=middle;whiteSpace=wrap;rounded=0;fontFamily=Iosevka NF;" parent="1" vertex="1">
          <mxGeometry x="250" y="370" width="60" height="30" as="geometry" />
        </mxCell>
        <mxCell id="yaZ3JlDPk_gf3g3lH3d3-42" value="&lt;p style=&quot;line-height: 120%;&quot;&gt;&lt;/p&gt;&lt;div&gt;ISP&lt;/div&gt;" style="text;html=1;align=center;verticalAlign=middle;whiteSpace=wrap;rounded=0;fontFamily=Iosevka NF;" parent="1" vertex="1">
          <mxGeometry x="449" y="173" width="60" height="30" as="geometry" />
        </mxCell>
        <mxCell id="yaZ3JlDPk_gf3g3lH3d3-43" value="&lt;div&gt;SW1&lt;/div&gt;" style="text;html=1;align=center;verticalAlign=middle;whiteSpace=wrap;rounded=0;fontFamily=Iosevka NF;" parent="1" vertex="1">
          <mxGeometry x="464.5" y="264" width="60" height="30" as="geometry" />
        </mxCell>
        <mxCell id="yaZ3JlDPk_gf3g3lH3d3-44" value="&lt;div&gt;SW2&lt;/div&gt;" style="text;html=1;align=center;verticalAlign=middle;whiteSpace=wrap;rounded=0;fontFamily=Iosevka NF;" parent="1" vertex="1">
          <mxGeometry x="340" y="392" width="60" height="30" as="geometry" />
        </mxCell>
        <mxCell id="yaZ3JlDPk_gf3g3lH3d3-46" value="&lt;div&gt;PC2A&lt;br&gt;(DNS)&lt;br&gt;&lt;/div&gt;" style="text;html=1;align=center;verticalAlign=middle;whiteSpace=wrap;rounded=0;fontFamily=Iosevka NF;" parent="1" vertex="1">
          <mxGeometry x="541" y="402" width="60" height="30" as="geometry" />
        </mxCell>
        <mxCell id="yaZ3JlDPk_gf3g3lH3d3-47" value="&lt;div&gt;PC2B&lt;/div&gt;" style="text;html=1;align=center;verticalAlign=middle;whiteSpace=wrap;rounded=0;fontFamily=Iosevka NF;" parent="1" vertex="1">
          <mxGeometry x="541" y="499" width="60" height="30" as="geometry" />
        </mxCell>
        <mxCell id="yaZ3JlDPk_gf3g3lH3d3-48" value="&lt;div style=&quot;line-height: 0%;&quot;&gt;VLAN A&lt;/div&gt;" style="edgeLabel;html=1;align=center;verticalAlign=middle;resizable=0;points=[];labelBackgroundColor=none;fontFamily=Iosevka NF;" parent="1" vertex="1" connectable="0">
          <mxGeometry x="510.00407195688695" y="367.9954147291655" as="geometry" />
        </mxCell>
        <mxCell id="yaZ3JlDPk_gf3g3lH3d3-49" value="&lt;div&gt;VLAN B&lt;/div&gt;" style="edgeLabel;html=1;align=center;verticalAlign=middle;resizable=0;points=[];labelBackgroundColor=none;fontFamily=Iosevka NF;" parent="1" vertex="1" connectable="0">
          <mxGeometry x="510.0021411177732" y="436.9972454647997" as="geometry" />
        </mxCell>
        <mxCell id="yaZ3JlDPk_gf3g3lH3d3-50" value="&lt;div&gt;R1&lt;/div&gt;" style="text;html=1;align=center;verticalAlign=middle;whiteSpace=wrap;rounded=0;fontFamily=Iosevka NF;" parent="1" vertex="1">
          <mxGeometry x="450" y="600" width="60" height="30" as="geometry" />
        </mxCell>
        <mxCell id="yaZ3JlDPk_gf3g3lH3d3-52" value="&lt;div&gt;R3&lt;br&gt;&lt;/div&gt;" style="text;html=1;align=center;verticalAlign=middle;whiteSpace=wrap;rounded=0;fontFamily=Iosevka NF;" parent="1" vertex="1">
          <mxGeometry x="320" y="655" width="60" height="30" as="geometry" />
        </mxCell>
        <mxCell id="yaZ3JlDPk_gf3g3lH3d3-51" value="&lt;div&gt;R2&lt;br&gt;&lt;/div&gt;" style="text;html=1;align=center;verticalAlign=middle;whiteSpace=wrap;rounded=0;fontFamily=Iosevka NF;" parent="1" vertex="1">
          <mxGeometry x="471" y="655" width="60" height="30" as="geometry" />
        </mxCell>
      </root>
    </mxGraphModel>
  </diagram>
</mxfile>
